<svg width="94" height="25" fill="none" xmlns="http://www.w3.org/2000/svg"><g clip-path="url(#a)" fill="#780096"><path d="M1.65 1.667A11.08 11.08 0 0 1 9.49 4.92a11.12 11.12 0 0 1 3.249 7.856v10.556a11.08 11.08 0 0 1-7.843-3.254 11.12 11.12 0 0 1-3.248-7.855V1.667ZM13.708 14.35V8.746a7.09 7.09 0 0 1 2.07-5.006 7.064 7.064 0 0 1 5-2.072v5.608a7.088 7.088 0 0 1-2.071 5.005 7.063 7.063 0 0 1-4.999 2.07ZM13.708 15.446h8.102c2.087 0 4.088.83 5.564 2.308a7.89 7.89 0 0 1 2.305 5.574h-8.103a7.862 7.862 0 0 1-5.563-2.309 7.89 7.89 0 0 1-2.305-5.573Z"/></g><path d="M53.803 23.333h-4.535l-4.935-8.02-1.688 1.223v6.797h-3.994V4.297h3.994v8.71c.267-.373.529-.746.786-1.119.258-.373.52-.746.786-1.12l5.102-6.471h4.432l-6.57 8.424 6.622 10.612ZM68.954 16.029c0 1.215-.163 2.291-.49 3.229-.317.937-.785 1.732-1.404 2.383a5.9 5.9 0 0 1-2.216 1.458c-.859.33-1.83.495-2.912.495-1.013 0-1.945-.165-2.795-.495a6.209 6.209 0 0 1-2.204-1.458c-.618-.651-1.099-1.446-1.443-2.383-.334-.938-.502-2.014-.502-3.23 0-1.614.283-2.981.85-4.1.567-1.12 1.375-1.971 2.422-2.553 1.048-.582 2.298-.872 3.75-.872 1.348 0 2.542.29 3.581.872 1.048.582 1.869 1.432 2.461 2.552.601 1.12.902 2.487.902 4.102Zm-9.96 0c0 .954.104 1.758.31 2.409.206.65.528 1.141.966 1.47.438.33 1.01.496 1.714.496.696 0 1.258-.165 1.688-.495.438-.33.755-.82.953-1.471.206-.651.31-1.454.31-2.41 0-.963-.104-1.761-.31-2.395-.198-.642-.515-1.124-.953-1.445-.438-.322-1.01-.482-1.714-.482-1.04 0-1.795.36-2.267 1.08-.464.72-.696 1.802-.696 3.243ZM80.163 11.758h-3.401v11.575h-3.93V11.758h-2.164V9.844l2.164-1.068V7.708c0-1.241.206-2.205.618-2.89a3.37 3.37 0 0 1 1.766-1.459c.764-.286 1.666-.43 2.705-.43.764 0 1.46.066 2.087.196.627.122 1.138.26 1.533.417l-1.004 2.916c-.301-.095-.628-.182-.98-.26a5.624 5.624 0 0 0-1.21-.117c-.55 0-.954.169-1.212.508-.249.33-.373.755-.373 1.276v.911h3.4v2.982Zm10.217 0h-3.402v11.575h-3.93V11.758h-2.164V9.844l2.165-1.068V7.708c0-1.241.206-2.205.618-2.89a3.369 3.369 0 0 1 1.765-1.459c.765-.286 1.667-.43 2.706-.43.764 0 1.46.066 2.087.196.627.122 1.138.26 1.533.417l-1.005 2.916c-.3-.095-.627-.182-.979-.26a5.625 5.625 0 0 0-1.21-.117c-.55 0-.954.169-1.212.508-.25.33-.374.755-.374 1.276v.911h3.402v2.982Z" fill="#780096"/><defs><clipPath id="a"><path fill="#fff" transform="translate(1.65 1.667)" d="M0 0h28.035v21.667H0z"/></clipPath></defs></svg>